<?xml version="1.0" encoding="utf-8"?>
<!-- Generator: Adobe Illustrator 27.5.0, SVG Export Plug-In . SVG Version: 6.00 Build 0)  -->
<svg version="1.1" id="Capa_1" xmlns="http://www.w3.org/2000/svg" xmlns:xlink="http://www.w3.org/1999/xlink" x="0px" y="0px"
	 viewBox="0 0 2122 2122" style="enable-background:new 0 0 2122 2122;" xml:space="preserve">
<path style="fill:#D78E60;" d="M1272.48,601.219c1.075,23.562,2.079,50.679,2.664,78.282c0.102-23.047,3.193-70.065,26.584-72.836
	c1.509-0.167,3.028-0.054,4.545,0.187c3.997-12.235,10.597-33.702,16.398-58.536c-0.177,5.809-0.357,11.617-0.517,17.428
	c-0.116,4.208-0.294,8.413-0.434,12.619c-0.171,5.127,0.525,9.668,1.063,14.706c0.134,1.253,1.905,1.657,2.297,0.311
	c1.298-4.46,2.679-8.228,3.267-12.915c0.525-4.191,0.867-8.413,1.257-12.618c0.878-9.474,1.464-18.914,1.749-28.425
	c0.162-5.429,0.177-10.862,0.241-16.293c2.078,9.392,4.047,18.825,7.001,27.951c0.411,1.269,2.223,1.015,2.297-0.311
	c0.77-13.659-1.85-27.503-4.639-40.834c-0.066-0.315-0.133-0.656-0.199-0.973c-12.456,6.829-28.288,12.099-48.416,12.675
	C1284.12,540.953,1271.06,570.082,1272.48,601.219z"/>
<path style="fill:#D78E60;" d="M1124.364,283.174c8.949,2.786,18.03,5.153,27.198,7.1c18.229,3.871,36.926,4.791,55.097,8.698
	c0.493,0.106,0.511,0.923,0,1.015c-16.502,2.964-33.92,0.837-50.452-2.055c6.356,1.23,12.7,2.481,19.022,3.566
	c20.311,3.488,41.503,4.75,61.269,10.553l-0.078,0.574c-14.969,1.924-30.505,0.66-45.766-1.17
	c5.452,1.128,10.916,2.197,16.407,3.119c13.219,2.22,26.539,3.737,39.834,5.359c-11.342-11.737-23.13-23.08-34.958-33.479
	c5.218,2.826,10.394,5.732,15.379,8.953c6.73,4.349,13.213,9.107,20.013,13.331c0.488,0.303,1.12-0.308,0.8-0.8
	c-8.506-13.106-22.809-22.932-36.012-30.844c-7.054-4.227-14.309-7.944-21.753-11.431c-1.62-0.759-3.246-1.552-4.887-2.314
	c10.995,3.273,22.229,5.616,33.569,7.276c0.71,0.104,1.327-0.906,0.54-1.283c-11.93-5.704-24.242-10.415-36.445-15.524
	c-6.167-2.583-12.441-4.86-18.539-7.618c-5.595-2.531-11.615-4.76-17.75-5.329c-11.164-5.264-21.416-8.296-30.177-8.328
	c4.239-0.993,8.444-2.068,12.63-3.311c2.489-0.739,5.045-1.393,7.452-2.374c2.806-1.144,5.377-2.768,8.174-3.882
	c0.848-0.338,0.521-1.48-0.373-1.354c-2.88,0.41-5.845,0.201-8.756,0.493c-2.523,0.253-5.026,0.799-7.528,1.209
	c-3.197,0.524-6.393,1.048-9.59,1.572c5.904-2.874,11.626-6.097,17.037-9.834c1.091-0.754,0.461-2.665-0.946-2.244
	c-18.432,5.509-36.44,12.298-55.139,17.014c-9.216,2.324-18.542,4.211-27.938,5.647c-5.074,0.776-11.224,0.64-16.671,1.842
	c23.078,8.325,49.455,26.24,80.224,42.862C1118.266,281.181,1121.282,282.215,1124.364,283.174z"/>
<path style="fill:#D78E60;" d="M1255.2,328.687c-0.82-0.881-1.635-1.761-2.462-2.638c-3.014,0.044-6.028,0.106-9.042,0.02
	C1247.754,327.024,1251.582,327.89,1255.2,328.687z"/>
<path style="fill:#CCCCCC;" d="M868.456,1908.563h82.319l41.951-365.572C963.818,1659.692,923.85,1775.227,868.456,1908.563z"/>
<path style="fill:#CCCCCC;" d="M1272.611,1325.129c-2.989-63.751-12.05-115.789-22.337-156.227l-110.926,123.385l-36.298-84.943
	c0,0-13.666,82.644-22.142,92.405l53.377,608.813h144.465c0,0-38.361-100.508-39.045-232.033
	C1239.069,1554.075,1276.25,1402.751,1272.611,1325.129z"/>
<path style="fill:#A8A8A8;" d="M1020.714,1299.099c-11.371-13.666-30.243-86.549-30.243-86.549l-24.078,79.737l-96.295-119.605
	c-9.891,39.887-18.492,90.663-21.388,152.446c-3.639,77.622,33.541,228.947,32.905,351.401
	c-0.684,131.525-39.045,232.033-39.045,232.033h25.886c55.393-133.336,95.361-248.87,124.27-365.572L1020.714,1299.099z"/>
<path style="fill:#FACFBC;" d="M1042.686,1077.846c-29.861,14.051-20.317,112.773,4.075,165.939l164.1-180.201
	c-8.12-31.432-18.712-75.413-25.663-115.609C1147.626,1004.963,1117.366,1042.706,1042.686,1077.846z"/>
<path style="fill:#ED9E8A;" d="M1046.76,1243.785c-24.392-53.167-33.936-151.888-4.075-165.939
	c74.68-35.14,104.94-72.883,142.512-129.871c-0.584-3.401-1.122-6.741-1.65-10.066c-20.419,17.013-41.915,34.965-61.347,54.599
	c-15.934,16.1-122.897,17.238-140.943-0.392c-18.484-18.059-37.9-34.222-56.46-49.277c-0.448,44.524-7.794,89.319-14.347,120.75
	c0,0,0.009-0.005,0.009-0.005L1046.76,1243.785z"/>
<path style="fill:#FACFBC;" d="M1306.273,606.852c-1.517-0.241-3.036-0.354-4.545-0.187c-23.391,2.771-26.482,49.79-26.584,72.836
	c-0.585-27.603-1.589-54.721-2.664-78.282c-1.42-31.137,11.64-60.266,15.159-79.582c-9.749,0.279-20.494-0.546-32.396-2.872
	c-0.032,0.709-0.072,1.398-0.078,2.174c-2.755,0.412-5.449,0.765-8.155,1.128c6.917,2.477,13.9,4.703,20.868,6.347
	c0.511,0.121,0.402,0.951-0.124,0.919c-8.699-0.534-16.956-0.97-25.438-3.105c-2.923-0.736-5.782-1.643-8.648-2.529
	c-204.134,22.178-260.655-95.768-273.385-133.457c-1.344-2.763-2.633-5.554-3.807-8.406c-0.061,0.138-0.124,0.275-0.186,0.412
	c-3.532,14.711-19.811,75.332-56.124,112.859c-41.559,42.949-64.898,40.021-64.898,40.021s16.494,35.133-6.656,86.606
	c1.682,30.443,0.492,59.814-8.371,71.947c-0.672,0.92-1.305,1.717-1.946,2.54c0.005,0.553,0.009,1.106,0.014,1.659
	c-0.028-0.6-0.051-1.102-0.074-1.581c-0.074-1.626-0.119-2.618-0.119-2.618s-0.229-83.336-31.285-87.015
	c-4.014-0.443-8.108,0.636-11.98,3.092c-13.421,8.516-24.026,34.501-18.124,78.971c6.839,52.089,33.584,86.845,51.394,88.783
	c5.679,0.674,10.456-3.32,12.464-9.888c2.047,33.109,5.609,61.63,11.415,78.607c11.159,32.628,49.647,61.606,92.797,96.609
	c18.56,15.055,37.976,31.218,56.46,49.277c18.046,17.63,125.009,16.492,140.943,0.392c19.432-19.635,40.928-37.587,61.347-54.599
	c38.712-32.255,73.55-61.13,83.081-91.679c4.554-14.594,7.05-40.388,8.212-71.187c2.174,1.972,5.587,2.755,8.637,2.393
	c17.81-1.939,41.516-36.62,48.355-88.709C1338.798,636.25,1322.791,609.475,1306.273,606.852z"/>
<path style="fill:#D78E60;" d="M1333.505,446.625c-0.965-9.774-7.28-23.788-17.212-39.981c0.75,0.501,1.478,1.027,2.24,1.518
	c4.254,2.741,8.932,4.55,13.342,6.966l0.425-0.551c-3.678-3.151-6.749-6.936-10.361-10.184c-3.632-3.265-7.23-6.555-10.885-9.793
	c-2.411-2.136-4.735-4.362-7.075-6.572l-0.501-0.726c1.01,0.791,1.995,1.616,3.008,2.402c2.978,2.309,6.038,4.431,9.18,6.511
	c1.611,1.066,3.193,2.127,4.926,2.986c1.962,0.972,4.077,1.365,6.05,2.346c0.659,0.327,1.268-0.453,0.779-1.01
	c-1.303-1.485-2.181-3.236-3.372-4.787c-1.179-1.537-2.609-2.829-4.013-4.153c-2.814-2.655-5.605-5.292-8.543-7.81
	c-5.877-5.038-11.661-10.179-17.41-15.363c-5.598-5.048-11.309-9.969-16.87-15.059l-0.594-0.552c-1.57-1.862-3.192-3.726-4.8-5.59
	c-6.016,3.394-13.781,6.466-23.246,7.619c5.392,4.036,10.784,8.069,16.205,12.067c14.12,10.413,28.24,21.008,41.443,32.565
	c0.686,0.601-0.193,1.559-0.921,1.194c-16.462-8.248-32.133-18.143-47.466-28.318c-3.056-2.028-6.12-4.057-9.181-6.087
	c-1.243-0.825-2.489-1.644-3.73-2.473c1.628,1.351,3.204,2.763,4.821,4.128c9.883,8.343,19.587,16.899,28.988,25.783
	c20.103,18.999,39.884,38.947,55.335,61.992C1333.948,452.617,1333.795,449.565,1333.505,446.625z"/>
<path style="fill:#D78E60;" d="M1272.471,399.962c-2.958-2.706-5.987-5.333-8.999-7.978c-6.271-5.505-12.607-10.934-19.054-16.232
	c7.329,7.16,14.435,14.318,21.328,21.42c27.774,28.619,51.618,56.213,68.099,78.238c0.277-5.17,0.406-10.25,0.335-15.196
	C1313.075,440.685,1293.703,419.38,1272.471,399.962z"/>
<path style="fill:#EFAD95;" d="M921.893,455.859c-0.478,0.776-1.525,0.232-1.39-0.586c3.394-20.387,11.764-40.238,19.122-59.479
	c2.736-7.156,5.643-14.236,8.602-21.299c-2.196,3.414-4.335,6.864-6.312,10.408c-8.14,14.589-14.571,30.038-20.515,45.627
	c-10.164,26.654-20.398,59.428-46.841,74.385c-1.361,0.77-2.649-1.002-1.629-2.112c21.878-23.834,30.234-54.236,41.902-83.639
	c3.433-8.652,7.104-17.228,11.129-25.631c-18.422,25.57-23.422,62.838-44.839,87.251c-15.48,17.644-45.238,38.722-57.626,47.174
	c1.094,3.524,2.245,7.03,3.428,10.524c4.478,13.224,8.036,26.254,8.185,40.264c0.022,2.098-2.968,2.396-3.56,0.482
	c-3.13-10.104-7.132-19.966-10.864-29.902c2.664,17.402,6.431,45.328,7.927,72.406c23.151-51.473,6.656-86.606,6.656-86.606
	s23.339,2.928,64.898-40.021c36.313-37.527,52.592-98.148,56.124-112.859c-2.585,5.768-5.164,11.539-7.774,17.295
	C940.003,418.316,932.716,438.288,921.893,455.859z"/>
<path style="fill:#EFAD95;" d="M1216.826,507.311c-11.329-4.462-26.227-12.741-41.227-21.913l0.505,0.346
	c13.808,9.243,28.223,17.806,43.278,24.866c8.853,4.151,18.172,8.071,27.629,11.457c2.706-0.363,5.4-0.716,8.155-1.128
	c0.005-0.776,0.045-1.464,0.078-2.174C1243.552,516.479,1230.814,512.821,1216.826,507.311z"/>
<path style="fill:#EFAD95;" d="M1186.126,501.828l0.926,0.602c4.405,2.89,8.849,5.718,13.315,8.514
	c4.705,2.946,8.9,6.566,13.548,9.609c0.578,0.378,0.078,1.182-0.531,0.909c-5.359-2.399-10.928-4.123-16.193-6.729
	c-4.975-2.463-9.93-4.967-14.846-7.545c-9.248-4.85-18.156-10.528-26.767-16.447c10.045,11.895,16.806,21.186,12.899,20.662
	c-31.535-4.235-62.798-14.803-92.271-32.816c-33.894-20.716-66.601-54.671-88.088-79.516c5.819,8.847,12.144,17.416,19.105,25.703
	c19.051,22.679,41.62,41.554,63.766,61.026c0.759,0.668-0.228,1.887-1.063,1.378c-26.03-15.888-49.716-36.546-70.219-59.125
	c-12.078-13.302-23.335-28.228-32.228-44.3c3.208,7.444,6.993,14.658,11.172,21.584c5.255,8.711,11.181,17.021,17.186,25.226
	c5.958,8.142,11.681,16.483,17.645,24.589c0.454,0.617-0.501,1.246-1.01,0.78c-8.242-7.548-16.171-14.792-23.55-23.25
	c-6.724-7.708-12.887-15.935-18.476-24.502c-3.77-5.778-7.159-11.757-10.164-17.936c12.73,37.689,69.251,155.635,273.385,133.457
	c-5.301-1.638-10.545-3.44-15.682-5.599C1206.943,513.458,1196.385,507.918,1186.126,501.828z"/>
<path style="fill:#EFAD95;" d="M1288.483,735.343c0,0,11.413-2.082,20.064-21.308c11.334-25.194,10.563-73.162-0.206-84.891
	c-13.314-14.501-13.231,29.262-13.231,29.262s-9.912,19.011-2.895,35.475C1300.435,713.164,1288.483,735.343,1288.483,735.343z"/>
<polygon style="fill:#ED9E8A;" points="1082.288,787.41 1082.288,779.716 1017.249,779.954 1044.903,798.702 "/>
<polygon style="fill:#ED9E8A;" points="1056.785,650.178 1052.312,709.937 1082.348,769.696 "/>
<path style="fill:#E4A978;" d="M1199.508,590.783c30.984,2.777,44.279,11.792,47.717,5.901c3.438-5.893-20.439-33.771-49.838-41.477
	c-23.632-6.194-75.886-10.377-78.015-8.642c-5.305,4.325-2.128,38.949,1.006,44.993
	C1121.251,593.241,1172.61,588.372,1199.508,590.783z"/>
<path style="fill:#E4A978;" d="M1109.01,581.766c1.095,3.135,2.554,8.3,5.696,9.427l0.529-0.352c0.32-1.629-0.076-3.028-0.568-4.566
	c-0.619-1.931-1.23-3.844-1.669-5.843c-0.788-3.59-0.856-7.654-0.73-11.364c0.13-3.8,0.087-7.55,0.519-11.343
	c0.231-2.021,0.079-4.036,0.118-6.065c0.036-1.92,0.063-3.747-0.099-5.652c-0.075-0.881-1.219-1.483-1.838-0.786
	c-5.527,6.237-6.893,16.2-5.463,24.416C1106.248,573.91,1107.609,577.752,1109.01,581.766z"/>
<path style="fill:#E4A978;" d="M1105.41,586.097c0.336,0.5,1.141-0.013,0.875-0.591c-1.13-2.46-2.861-10.992-3.157-16.455
	c-0.144-2.675-0.084-5.428,0.109-8.108c0.107-1.493,0.463-2.973,0.106-4.428c-0.315-1.289-0.602-2.583-0.839-3.895l-0.612-0.261
	c-0.853,0.943-1.671,1.923-2.408,2.982c-1,1.436-1.189,2.992-1.393,4.733c-0.378,3.238-0.477,6.454,0.169,9.607
	C1100.277,579.526,1103.755,583.631,1105.41,586.097z"/>
<path style="fill:#ED9E8A;" d="M1139.126,626.484c22.617-10.759,54.657-10.204,61.472-6.516
	c8.045,4.355,13.542,11.658,17.018,17.815l0.006,0.001c0,0-3.623-12.825-13.305-21.845c-8.188-7.627-18.379-12.503-44.623-8.171
	c-24.158,3.988-49.547,38.517-49.548,38.518C1116.102,640.331,1127.199,632.159,1139.126,626.484z"/>
<path style="fill:#FFFFFF;" d="M1138.076,652.692c-0.866-9.17,3.399-17.46,10.406-22.421c-2.041,0.314-4.077,0.656-6.105,1.025
	c-9.166,1.665-22.222,12.943-30.042,18.835c-0.682,0.943-1.059,1.535-1.059,1.535s9.81,12.591,17.511,16.089
	c1.887,0.857,10.262,3.968,21.451,4.872l-0.282-0.145C1142.491,667.835,1138.777,660.884,1138.076,652.692z"/>
<path style="fill:#FFFFFF;" d="M1189.58,629.333c-4.526-0.709-9.26-1.034-14.098-1.107c0.621,0.294,1.263,0.552,1.857,0.89
	l0.054-0.003l0.285,0.2c7.271,4.379,12.4,11.899,13.241,20.572c0.941,10.195-6.879,20.746-12.347,23.887l-1.058,0.505
	c12.735,0.366,24.171-3.328,26.629-4.912c6.123-3.946,13.315-15.267,13.849-24.176C1209.474,638.8,1196.106,630.356,1189.58,629.333
	z"/>
<path style="fill:#52A9DF;" d="M1177.679,629.312l-0.285-0.2l-0.054,0.003c-0.594-0.338-1.236-0.595-1.857-0.89
	c-8.775-0.132-17.921,0.649-27.001,2.045c-7.007,4.961-11.272,13.251-10.406,22.421c0.701,8.192,4.415,15.143,11.881,19.789
	l0.282,0.145c8.56,0.748,18.365,1.361,27.277,1.649l1.058-0.505c5.468-3.141,13.288-13.691,12.347-23.887
	C1190.079,641.211,1184.95,633.691,1177.679,629.312z"/>
<path style="fill:#583636;" d="M1167.338,644.497c-0.044-0.68,0.023-1.336,0.142-1.976c-1.235-0.358-2.535-0.558-3.886-0.484
	c-6.153,0.325-10.825,5.497-10.261,11.584c0.532,6.064,6.114,10.746,12.195,10.437c6.345-0.31,10.929-5.502,10.346-11.624
	c-0.016-0.164-0.071-0.315-0.094-0.477C1171.399,652.207,1167.625,648.884,1167.338,644.497z"/>
<path style="fill:#583636;" d="M1217.615,637.783c-3.475-6.157-8.973-13.46-17.018-17.815c-6.814-3.688-38.855-4.244-61.472,6.516
	c-11.927,5.675-23.024,13.847-28.981,19.802c-3.512,3.512-5.243,6.255-4.289,7.255c0.67,0.7,3.09-0.857,6.479-3.41
	c7.82-5.892,20.876-17.169,30.042-18.835c2.027-0.369,4.064-0.711,6.105-1.025c9.08-1.396,18.226-2.177,27.001-2.045
	c4.838,0.072,9.572,0.398,14.098,1.107c6.526,1.023,19.893,9.468,28.414,15.855c1.695,1.271,3.267,2.489,4.48,3.519
	C1222.474,648.707,1221.007,643.791,1217.615,637.783z"/>
<path style="fill:#FFFFFF;" d="M1183.31,643.45c-0.289-4.41-4.099-7.752-8.509-7.463c-3.731,0.245-6.67,3.018-7.32,6.534
	c-0.118,0.64-0.186,1.296-0.142,1.976c0.287,4.387,4.06,7.71,8.441,7.46c0.023-0.001,0.045,0.004,0.067,0.003
	C1180.257,651.671,1183.598,647.861,1183.31,643.45z"/>
<path style="fill:#ED9E8A;" d="M894.415,619.968c6.813-3.688,38.854-4.244,61.471,6.516c11.927,5.675,23.024,13.847,28.981,19.802
	c0,0-25.389-34.53-49.548-38.518c-26.244-4.332-36.436,0.543-44.623,8.171c-9.682,9.02-13.305,21.845-13.305,21.845l0.005-0.001
	C880.872,631.626,886.37,624.323,894.415,619.968z"/>
<path style="fill:#FFFFFF;" d="M904.091,649.884c0.841-8.673,5.971-16.193,13.241-20.572l0.285-0.2l0.054,0.003
	c0.594-0.338,1.236-0.595,1.857-0.89c-4.838,0.072-9.573,0.398-14.098,1.107c-6.526,1.023-19.893,9.467-28.414,15.855
	c0.534,8.909,7.727,20.23,13.85,24.176c2.458,1.585,13.893,5.278,26.629,4.912l-1.058-0.505
	C910.97,670.63,903.15,660.079,904.091,649.884z"/>
<path style="fill:#FFFFFF;" d="M952.635,631.296c-2.027-0.369-4.065-0.711-6.105-1.025c7.007,4.961,11.272,13.251,10.406,22.421
	c-0.701,8.192-4.415,15.143-11.88,19.789l-0.282,0.145c11.189-0.904,19.564-4.015,21.451-4.872
	c7.701-3.498,17.512-16.089,17.512-16.089s-0.376-0.592-1.058-1.535C974.858,644.239,961.801,632.961,952.635,631.296z"/>
<path style="fill:#52A9DF;" d="M946.53,630.271c-9.08-1.396-18.226-2.177-27.001-2.045c-0.621,0.294-1.263,0.552-1.857,0.89
	l-0.054-0.003l-0.285,0.2c-7.27,4.379-12.4,11.899-13.241,20.572c-0.941,10.195,6.879,20.746,12.347,23.887l1.058,0.505
	c8.911-0.289,18.717-0.901,27.277-1.649l0.282-0.145c7.466-4.646,11.18-11.597,11.88-19.789
	C957.802,643.522,953.537,635.232,946.53,630.271z"/>
<path style="fill:#583636;" d="M941.203,651.96c-4.41-0.289-7.752-4.099-7.463-8.509c0.022-0.338,0.102-0.655,0.164-0.979
	c-0.796-0.226-1.62-0.389-2.485-0.434c-6.268-0.342-11.72,4.347-12.28,10.397c-0.583,6.122,4.001,11.314,10.346,11.624
	c6.08,0.309,11.662-4.373,12.195-10.437c0.053-0.572,0.016-1.125-0.02-1.678C941.506,651.942,941.359,651.969,941.203,651.96z"/>
<path style="fill:#583636;" d="M905.432,629.333c4.525-0.709,9.26-1.034,14.098-1.107c8.775-0.132,17.92,0.649,27.001,2.045
	c2.041,0.314,4.078,0.656,6.105,1.025c9.166,1.665,22.223,12.943,30.043,18.835c3.389,2.553,5.807,4.11,6.477,3.41
	c0.955-0.999-0.776-3.743-4.289-7.255c-5.957-5.955-17.054-14.127-28.981-19.802c-22.617-10.759-54.657-10.204-61.471-6.516
	c-8.045,4.355-13.543,11.658-17.019,17.815c-3.392,6.008-4.859,10.924-4.859,10.924c1.213-1.031,2.784-2.248,4.48-3.52
	C885.539,638.8,898.906,630.356,905.432,629.333z"/>
<path style="fill:#FFFFFF;" d="M941.203,651.96c0.156,0.01,0.303-0.018,0.457-0.016c4.211,0.035,7.773-3.192,8.052-7.447
	c0.289-4.41-3.052-8.22-7.463-8.509c-4.073-0.266-7.597,2.576-8.345,6.484c-0.062,0.324-0.142,0.641-0.164,0.979
	C933.451,647.861,936.792,651.671,941.203,651.96z"/>
<path style="fill:#E4A978;" d="M971.103,591.557c3.135-6.044,6.312-40.668,1.007-44.993c-2.129-1.736-54.383,2.447-78.015,8.642
	c-29.4,7.706-53.276,35.585-49.838,41.477c3.438,5.891,16.732-3.123,47.717-5.901C918.871,588.372,970.23,593.241,971.103,591.557z"
	/>
<path style="fill:#E4A978;" d="M976.774,591.194c3.143-1.128,4.602-6.293,5.697-9.427c1.401-4.014,2.762-7.857,3.505-12.128
	c1.429-8.216,0.064-18.178-5.464-24.416c-0.619-0.697-1.763-0.095-1.838,0.786c-0.162,1.905-0.134,3.732-0.098,5.652
	c0.038,2.029-0.113,4.044,0.117,6.065c0.432,3.793,0.389,7.542,0.519,11.343c0.126,3.71,0.058,7.774-0.73,11.364
	c-0.44,1.999-1.051,3.912-1.669,5.843c-0.493,1.539-0.888,2.938-0.568,4.566L976.774,591.194z"/>
<path style="fill:#E4A978;" d="M988.352,569.051c-0.295,5.463-2.026,13.995-3.156,16.455c-0.266,0.578,0.54,1.092,0.875,0.591
	c1.655-2.467,5.134-6.572,7.15-16.417c0.646-3.153,0.546-6.368,0.169-9.607c-0.203-1.74-0.393-3.296-1.393-4.733
	c-0.737-1.059-1.556-2.039-2.409-2.982l-0.612,0.261c-0.237,1.312-0.523,2.606-0.839,3.895c-0.356,1.455,0,2.935,0.107,4.428
	C988.437,563.623,988.496,566.376,988.352,569.051z"/>
<path style="fill:#ED9E8A;" d="M1068.911,910.791c-10.075-2.967-25.845-3.677-35.396,1.843c-8.976,5.189-4.073,16.572,6.145,15.299
	c3.703-0.461,7.112-2.172,10.549-3.627c3.438-1.455,7.152-2.695,10.844-2.142c2.812,0.422,5.368,1.851,8.115,2.586
	c2.747,0.735,6.081,0.587,7.922-1.58c1.912-2.25,1.343-5.866-0.56-8.123C1074.627,912.791,1071.744,911.625,1068.911,910.791z"/>
<path style="fill:#E4A978;" d="M786.83,606.665c31.057,3.679,31.285,87.015,31.285,87.015s0.045,0.992,0.119,2.618
	c0.02-0.026,0.04-0.052,0.06-0.078c0.642-0.824,1.275-1.62,1.946-2.54c8.863-12.134,10.054-41.504,8.371-71.947
	c-1.496-27.078-5.263-55.004-7.927-72.406c3.732,9.936,7.734,19.798,10.864,29.902c0.593,1.914,3.582,1.616,3.56-0.482
	c-0.149-14.01-3.708-27.04-8.185-40.264c-1.183-3.494-2.334-7-3.428-10.524c12.389-8.452,42.146-29.53,57.626-47.174
	c21.417-24.412,26.417-61.681,44.839-87.251c-4.025,8.403-7.696,16.979-11.129,25.631c-11.668,29.403-20.024,59.805-41.902,83.639
	c-1.02,1.111,0.268,2.882,1.629,2.112c26.443-14.957,36.678-47.731,46.841-74.385c5.944-15.589,12.376-31.038,20.515-45.627
	c1.977-3.543,4.116-6.994,6.312-10.408c-2.959,7.063-5.866,14.142-8.602,21.299c-7.359,19.241-15.729,39.092-19.122,59.479
	c-0.136,0.818,0.911,1.361,1.39,0.586c10.823-17.57,18.11-37.543,26.624-56.317c2.61-5.757,5.189-11.527,7.774-17.295
	c0.062-0.137,0.124-0.274,0.186-0.412c1.174,2.852,2.464,5.644,3.807,8.406c3.005,6.179,6.393,12.158,10.164,17.936
	c5.589,8.567,11.753,16.794,18.476,24.502c7.379,8.459,15.308,15.703,23.55,23.25c0.509,0.466,1.464-0.163,1.01-0.78
	c-5.964-8.106-11.687-16.447-17.645-24.589c-6.005-8.205-11.93-16.515-17.186-25.226c-4.179-6.926-7.964-14.14-11.172-21.584
	c8.893,16.072,20.15,30.997,32.228,44.3c20.502,22.58,44.188,43.238,70.219,59.125c0.835,0.509,1.821-0.71,1.063-1.378
	c-22.146-19.472-44.715-38.347-63.766-61.026c-6.961-8.286-13.286-16.855-19.105-25.703c21.487,24.845,54.194,58.8,88.088,79.516
	c29.473,18.013,60.736,28.581,92.271,32.816c3.906,0.525-2.854-8.766-12.899-20.662c8.611,5.919,17.518,11.598,26.767,16.447
	c4.916,2.578,9.871,5.082,14.846,7.545c5.264,2.606,10.834,4.33,16.193,6.729c0.61,0.273,1.109-0.53,0.531-0.909
	c-4.648-3.043-8.843-6.663-13.548-9.609c-4.465-2.796-8.909-5.625-13.315-8.514l-0.926-0.602
	c10.259,6.09,20.818,11.629,31.86,16.271c5.137,2.159,10.381,3.96,15.682,5.599c2.866,0.886,5.725,1.792,8.648,2.529
	c8.482,2.135,16.739,2.57,25.438,3.105c0.526,0.033,0.636-0.798,0.124-0.919c-6.968-1.644-13.951-3.87-20.868-6.347
	c-9.457-3.385-18.776-7.306-27.629-11.457c-15.055-7.059-29.47-15.623-43.278-24.866l-0.505-0.346
	c15,9.172,29.898,17.451,41.227,21.913c13.989,5.51,26.726,9.168,38.417,11.454c11.902,2.326,22.647,3.151,32.396,2.872
	c20.128-0.576,35.96-5.846,48.416-12.675c5.335-2.926,10.084-6.114,14.277-9.33c-4.072-6.899-9.65-15.082-16.488-24.221
	c-16.481-22.025-40.325-49.619-68.099-78.238c-6.893-7.102-13.999-14.26-21.328-21.42c6.447,5.297,12.783,10.727,19.054,16.232
	c3.012,2.645,6.041,5.272,8.999,7.978c21.232,19.418,40.605,40.723,61.708,60.253c1.364,1.262,2.672,2.582,4.053,3.828
	c0.429,0.388,1.149-0.107,0.826-0.638c-1.592-2.621-3.286-5.171-4.99-7.714c-15.451-23.045-35.232-42.993-55.335-61.992
	c-9.4-8.884-19.104-17.44-28.988-25.783c-1.616-1.365-3.193-2.777-4.821-4.128c1.241,0.828,2.486,1.648,3.73,2.473
	c3.061,2.03,6.125,4.059,9.181,6.087c15.333,10.176,31.004,20.07,47.466,28.318c0.728,0.365,1.607-0.593,0.921-1.194
	c-13.203-11.557-27.323-22.152-41.443-32.565c-5.421-3.998-10.814-8.031-16.205-12.067c9.465-1.152,17.23-4.225,23.246-7.619
	c10.066-5.679,15.229-12.261,15.229-12.261s-12.551-2.026-31.848-6.274c-3.618-0.797-7.447-1.663-11.503-2.618
	c3.013,0.086,6.028,0.024,9.042-0.02c5.632-0.082,11.264-0.322,16.895-0.97c1.059-0.122,1.562-1.87,0.279-2.067
	c-7.645-1.177-15.328-2.142-23.017-3.08c-13.295-1.622-26.615-3.139-39.834-5.359c-5.491-0.922-10.955-1.991-16.407-3.119
	c15.261,1.83,30.797,3.094,45.766,1.17l0.078-0.574c-19.766-5.803-40.958-7.065-61.269-10.553
	c-6.322-1.085-12.666-2.336-19.022-3.566c16.532,2.892,33.95,5.019,50.452,2.055c0.511-0.092,0.493-0.909,0-1.015
	c-18.171-3.907-36.868-4.826-55.097-8.698c-9.168-1.947-18.249-4.314-27.198-7.1c-3.082-0.959-6.098-1.993-9.114-2.992
	c-30.768-16.622-57.145-34.537-80.224-42.862c-12.38-4.466-23.827-6.219-34.456-3.428c-18.585,4.879-43.376,22.454-58.312,34.027
	c-4.346,3.367-7.9,6.253-10.171,8.137c0.122-1.148,0.207-2.301,0.39-3.439c0.177-1.102,0.422-2.188,0.639-3.28
	c1.394-7.038,3.464-13.901,5.155-20.875c0.286-1.177-1.164-2.075-2.052-1.194c-5.953,5.903-9.512,13.68-11.77,21.683
	c-2.765-3.368-5.755-6.42-9.263-9.049c-3.529-2.645-7.856-5.33-12.411-5.127c-0.767,0.035-1.088,0.755-0.808,1.407
	c1.647,3.835,4.917,6.846,7.655,9.938c1.5,1.693,2.968,3.427,4.394,5.195c1.048,1.298,2.084,2.607,3.044,3.966
	c-5.337-1.296-12.029-2.699-19.135-3.711c-7.838-1.114-16.183-1.749-23.847-1.171c-19.95-0.724-39.325,18.83-53.176,30.318
	c-19.535,16.202-39.918,29.997-61.667,42.954c-0.844,0.503-0.247,1.636,0.631,1.496c9.675-1.549,18.627-5.308,27.06-10.203
	c-17.676,15.178-35.793,29.955-52.091,46.625c-0.999,1.022,0.295,2.82,1.558,2.02c17.14-10.858,33.017-23.579,48.777-36.363
	c-2.41,2.468-4.876,4.881-7.188,7.442c-10.2,11.302-19.864,23.12-29.542,34.869c-4.931,5.986-10.006,11.859-15.388,17.446
	c-5.281,5.483-10.347,11.593-15.996,16.632c-0.449,0.401,0.13,1.13,0.638,0.827c6.284-3.765,12.351-7.065,17.936-11.905
	c5.85-5.069,11.399-10.477,16.805-16.015c4.283-4.388,8.382-8.945,12.448-13.533c-2.766,4.405-5.494,8.835-8.212,13.272
	c-7.186,11.733-14.184,23.605-22.248,34.767c-4.035,5.585-8.139,11.143-12.667,16.341c-4.653,5.342-9.356,11.334-14.346,16.28
	c-0.894,0.886,0.251,2.388,1.346,1.745c5.931-3.486,10.992-6.304,16.069-11.135c3.755-3.574,7.292-7.399,10.665-11.354
	c-0.575,2.139-1.117,4.266-1.611,6.348c-2.213,9.34-3.632,18.813-3.934,28.41c-0.327,10.381,1.039,19.557,3.205,29.636
	c0.113,0.526,0.91,0.392,0.919-0.124c0.153-8.311,1.095-16.934,2.109-25.26c0.156,1.414,0.313,2.829,0.503,4.243
	c2.071,15.378,6.406,30.034,11.851,44.504c0.171,0.454,0.971,0.441,0.919-0.124c-1.272-13.865-3.31-27.635-4.47-41.51
	c6.97,35.338,19.565,83.359,29.87,120.711C778.722,607.3,782.816,606.221,786.83,606.665z"/>
<path style="fill:#EFAD95;" d="M796.344,693.881c7.018-16.464-2.895-35.475-2.895-35.475s0.083-43.763-13.231-29.262
	c-10.769,11.729-11.54,59.697-0.205,84.891c8.65,19.226,20.063,21.308,20.063,21.308S788.124,713.164,796.344,693.881z"/>
<path style="fill:#ED9E8A;" d="M1116.897,862.014c-2.445,1.596-5.089,3.043-8.032,4.39c-10.078,4.54-23.249,7.384-41.359,7.982
	c-17.412,0.599-38.565-0.898-54.081-4.291c-7.333-1.596-13.37-3.642-17.162-6.087c-3.502-2.265-8.356-11.255-12.812-20.906
	c5.024,13.224,12.754,31.839,17.641,35.249c3.514,2.445,9.11,4.49,15.907,6.087c14.382,3.393,33.989,4.889,50.127,4.291
	c16.786-0.599,28.995-3.443,38.336-7.983c2.729-1.347,5.18-2.794,7.445-4.39c6.797-4.826,13.262-22.579,17.133-35.119
	C1126.249,850.3,1121.655,858.883,1116.897,862.014z"/>
<path style="fill:#583636;" d="M1111.51,846.398c-6.081,0.675-12.534,1.626-19.196,2.626c8.962,4.311,15.106,10.437,16.551,17.38
	c2.943-1.347,5.588-2.794,8.032-4.39c4.757-3.131,9.352-11.714,13.143-20.776c5.511-13.174,9.308-27.368,9.308-27.368
	s-1.668,1.274-4.67,2.972C1129.861,831.054,1125.8,846.398,1111.51,846.398z"/>
<path style="fill:#583636;" d="M996.263,864.01c3.792,2.445,9.828,4.49,17.162,6.087v-0.499c0-6.48,4.056-12.429,10.802-17.089
	c-19.102-3.303-35.795-12.618-46.246-33.684c-3.768-2.007-6.065-3.607-6.065-3.607s5.387,14.576,11.534,27.887
	C987.907,852.755,992.761,861.745,996.263,864.01z"/>
<path style="fill:#AC390F;" d="M1092.314,849.024c-22.119,3.319-46.621,7.196-68.087,3.484c-6.747,4.661-10.802,10.61-10.802,17.089
	v0.499c15.516,3.393,36.669,4.889,54.081,4.291c18.11-0.599,31.281-3.442,41.359-7.982
	C1107.42,859.461,1101.276,853.335,1092.314,849.024z"/>
<path style="fill:#FFFFFF;" d="M1024.227,852.508c21.466,3.712,45.968-0.165,68.087-3.484c6.662-1,13.115-1.951,19.196-2.626
	c14.29,0,18.352-15.345,23.168-29.557c0.001-0.005,0.003-0.009,0.005-0.014c-0.607,0.343-1.275,0.698-1.989,1.059
	c-0.036,0.018-0.065,0.035-0.101,0.053c-5.25,2.637-13.286,5.588-23.116,6.686c-13.799,1.542-101.3,2.337-108.024,1.546
	c-9.319-1.097-18.061-4.468-23.48-7.363c0.002,0.005,0.005,0.01,0.009,0.016C988.432,839.89,1005.125,849.205,1024.227,852.508z"/>
<path style="fill:#E6E6E6;" d="M1046.76,1243.785l56.289-36.441l36.298,84.943l110.926-123.385
	c-17.855-70.185-39.413-105.317-39.413-105.317l0,0L1046.76,1243.785z"/>
<path style="fill:#2D5BA7;" d="M1690.68,1487.693c-45.555-218.105-159.441-234.147-236.697-283.971c0,0-0.001-0.001-0.002-0.001
	c-21.638-16.174-52.769-35.548-85.558-54.66c29.452,80.061,40.556,198.589,11.843,274.98c-4.666,12.412-81.26-24.729-81.26-24.729
	s77.778,67.088,70.848,86.615c-52.02,146.592-110.99,287.698-41.348,422.635h72.725h76.185h10.874h58.567
	c0,0-49.457-221.621-45.552-286.696c1.517-25.276-1.203-90.956-6.681-163.019c10.555,39.527,18.092,86.391,20.998,141.657
	c5.272,100.292,44.539,182.225,56.737,308.058h180.235C1736.036,1762.522,1714.7,1602.859,1690.68,1487.693z"/>
<path style="fill:#193782;" d="M1494.623,1458.848c5.478,72.063,8.198,137.743,6.681,163.019
	c-3.904,65.075,45.552,286.696,45.552,286.696h25.502c-12.198-125.833-51.465-207.765-56.737-308.058
	C1512.715,1545.239,1505.178,1498.375,1494.623,1458.848z"/>
<path style="fill:#193782;" d="M1369.854,1485.927c6.93-19.526-70.848-86.615-70.848-86.615s76.595,37.141,81.26,24.729
	c28.712-76.391,17.608-194.919-11.843-274.98c-0.002-0.002-0.002-0.004-0.003-0.005c-0.06-0.034-0.123-0.069-0.184-0.102
	c-11.467-6.415-24.019-13.347-36.871-20.391c-57.263-31.382-120.505-64.978-120.505-64.978s21.559,35.132,39.413,105.317
	c10.286,40.438,19.348,92.476,22.337,156.227c3.64,77.622-33.542,228.947-32.905,351.401
	c0.684,131.525,39.045,232.033,39.045,232.033h49.756C1258.864,1773.625,1317.834,1632.52,1369.854,1485.927z"/>
<path style="fill:#E6E6E6;" d="M910.46,1063.584c0,0-22.332,36.394-40.362,109.098l96.295,119.605l24.078-79.737l56.289,31.235
	L910.46,1063.584z"/>
<path style="fill:#193782;" d="M620.016,1621.867c-1.517-25.276,1.203-90.957,6.681-163.019
	c-10.554,39.527-18.091,86.391-20.997,141.657c-5.273,100.292-44.54,182.225-56.738,308.058h4.175h0.001h21.326
	C574.464,1908.563,623.92,1686.942,620.016,1621.867z"/>
<path style="fill:#2D5BA7;" d="M751.466,1485.927c-6.93-19.526,70.848-86.615,70.848-86.615s-76.595,37.141-81.261,24.729
	c-28.712-76.391-17.608-194.92,11.845-274.98c-32.79,19.112-63.921,38.485-85.559,54.66c-0.001,0-0.001,0.001-0.003,0.001
	c-77.256,49.824-191.142,65.866-236.697,283.971c-24.021,115.166-45.356,274.828-61.913,420.869h180.235
	c12.198-125.833,51.465-207.765,56.738-308.058c2.906-55.266,10.443-102.131,20.997-141.657
	c-5.478,72.063-8.198,137.743-6.681,163.019c3.904,65.075-45.552,286.696-45.552,286.696h69.441h76.185h72.725
	C862.456,1773.625,803.486,1632.52,751.466,1485.927z"/>
<path style="fill:#193782;" d="M848.709,1325.129c2.897-61.784,11.498-112.56,21.388-152.446
	c18.029-72.704,40.362-109.098,40.362-109.098s-0.009,0.005-0.009,0.005c-0.168,0.09-63.309,33.634-120.496,64.973
	c-12.856,7.046-25.411,13.979-36.88,20.396c-0.057,0.032-0.117,0.065-0.175,0.097c0,0.001-0.001,0.003-0.002,0.005
	c-29.453,80.06-40.557,198.589-11.845,274.98c4.666,12.412,81.261-24.729,81.261-24.729s-77.778,67.088-70.848,86.615
	c52.02,146.592,110.99,287.698,41.348,422.635h49.756c0,0,38.361-100.508,39.045-232.033
	C882.251,1554.075,845.07,1402.751,848.709,1325.129z"/>
<path style="fill:#193782;" d="M1080.908,1299.749c8.476-9.761,22.142-92.405,22.142-92.405l-56.289,36.441l-56.289-31.235
	c0,0,18.872,72.883,30.243,86.549l-27.988,243.892l-41.951,365.572h24.8h158.71L1080.908,1299.749z"/>
<polygon style="fill:#2D5BA7;" points="1024.158,1357.014 975.575,1908.563 1067.33,1770.887 "/>
</svg>
