<svg xmlns="http://www.w3.org/2000/svg" xml:space="preserve" width="2000" height="360" viewBox="0 0 2000 360" data-version="1" data-id="lg_7vUyqn9fVvIjFNK51U"><g id="outer-wrapper" data-padding="20" transform="matrix(1,0,0,1,0,0)"><g id="inner-wrapper" transform="matrix(0.9642857142857143,0,0,0.9642857142857143,10,6.428571428571416)"><rect width="560" height="105.09" x="346.1666666666665" y="-272.77884643348926" fill="none" rx="0" ry="0" transform="translate(400.5 490.01)"></rect><path fill="#006f42" d="M763.9366666666666 298.99615356651077H755.7566666666667V233.89615356651078H776.4966666666667Q782.4466666666666 233.89615356651078 787.0066666666667 236.07615356651078Q791.5666666666666 238.26615356651078 794.2566666666667 242.91615356651076Q796.9566666666666 247.56615356651074 796.9566666666666 254.81615356651074Q796.9566666666666 262.0761535665107 794.2166666666666 266.90615356651074Q791.4666666666666 271.74615356651066 786.8666666666666 274.2061535665107Q782.2666666666667 276.6761535665107 776.4966666666667 276.6761535665107H763.9366666666666ZM763.9366666666666 241.33615356651083V269.42615356651083H775.7566666666667Q779.3766666666667 269.42615356651083 782.2666666666667 267.88615356651076Q785.1466666666666 266.3561535665108 786.8666666666666 263.1861535665108Q788.5866666666666 260.02615356651074 788.5866666666666 255.3761535665108Q788.5866666666666 250.82615356651078 786.8666666666666 247.65615356651077Q785.1466666666666 244.49615356651074 782.2666666666667 242.91615356651076Q779.3766666666667 241.33615356651077 775.7566666666667 241.33615356651077ZM840.7666666666667 262.7261535665108V233.89615356651083H849.0466666666666V298.99615356651077H840.7666666666667V270.16615356651073H812.4066666666666V298.99615356651077H804.2166666666667V233.89615356651078H812.4066666666666V262.7261535665108ZM864.5666666666666 298.99615356651077H856.1966666666667V297.3261535665108L872.0066666666667 233.89615356651083L890.4166666666667 233.9861535665108L906.1366666666668 297.3261535665108V298.99615356651077H897.7666666666667L892.7466666666667 278.0661535665108H869.5866666666667ZM877.9566666666667 241.52615356651077L871.0766666666666 270.8161535665108H891.3566666666667L884.3766666666667 241.52615356651077ZM913.2966666666666 298.99615356651077L913.4866666666667 233.89615356651078H921.4866666666667V298.99615356651077ZM916.3666666666666 233.89615356651078H935.4366666666666Q940.9166666666666 233.89615356651078 945.1966666666666 236.07615356651078Q949.4766666666666 238.26615356651078 951.9366666666666 242.63615356651079Q954.4066666666666 247.0061535665108 954.4066666666666 253.51615356651078Q954.4066666666666 259.8461535665108 951.8466666666666 264.2161535665108T945.1066666666666 270.8661535665108Q940.9166666666666 273.14615356651075 935.9866666666667 273.14615356651075H916.3666666666666ZM920.9266666666666 241.33615356651077V265.9761535665108H934.7866666666666Q937.9466666666667 265.9761535665108 940.4566666666667 264.5861535665108Q942.9666666666667 263.1861535665108 944.4966666666667 260.4461535665108Q946.0366666666666 257.7061535665108 946.0366666666666 253.88615356651079Q946.0366666666666 249.70615356651078 944.4966666666667 246.91615356651076Q942.9666666666667 244.12615356651074 940.4566666666667 242.72615356651076Q937.9466666666667 241.33615356651077 934.7866666666666 241.33615356651077ZM946.0366666666666 298.99615356651077L932.0866666666666 268.5861535665108L939.8066666666666 267.5661535665108L954.4066666666668 297.50615356651076V298.99615356651077ZM971.3266666666666 298.99615356651077H963.3366666666666V233.89615356651078H977.0066666666667L991.6966666666667 286.90615356651074H992.7166666666667L1007.4166666666666 233.89615356651078H1021.0866666666666V298.99615356651077H1012.9966666666667L1013.3666666666667 243.7561535665108H1012.0666666666666L996.8166666666666 298.99615356651077H987.6066666666667L972.2566666666667 243.7561535665108H971.0566666666666ZM1036.6166666666668 298.99615356651077H1028.2466666666667V297.3261535665108L1044.0566666666666 233.89615356651083L1062.4666666666667 233.9861535665108L1078.1866666666667 297.3261535665108V298.99615356651077H1069.8166666666666L1064.7966666666666 278.0661535665108H1041.6366666666668ZM1050.0066666666667 241.52615356651077L1043.1266666666666 270.8161535665108H1063.3966666666665L1056.4266666666667 241.52615356651077ZM1082.6566666666668 266.4461535665108Q1082.6566666666668 257.88615356651076 1084.9766666666667 251.5661535665108Q1087.3066666666666 245.2461535665108 1091.2566666666667 241.1061535665108T1100.2266666666667 234.91615356651081Q1105.2466666666667 232.8761535665108 1110.6466666666665 232.8761535665108Q1115.8566666666666 232.8761535665108 1119.2466666666667 233.9861535665108Q1122.6466666666665 235.1061535665108 1124.1266666666666 236.59615356651082V244.58615356651083H1122.6466666666665Q1121.0566666666666 242.72615356651082 1118.1766666666667 241.65615356651082Q1115.2966666666666 240.59615356651082 1111.0166666666667 240.59615356651082Q1105.2466666666667 240.59615356651082 1100.7366666666667 243.56615356651085Q1096.2266666666667 246.54615356651087 1093.6766666666667 252.30615356651086Q1091.1166666666666 258.0761535665108 1091.1166666666666 266.4461535665108T1093.6766666666667 280.5861535665108Q1096.2266666666667 286.3461535665108 1100.6966666666667 289.3261535665108Q1105.1566666666665 292.29615356651084 1110.9266666666667 292.29615356651084Q1115.2066666666665 292.29615356651084 1118.1366666666665 291.2261535665109Q1121.0566666666666 290.15615356651085 1122.6466666666665 288.29615356651084H1124.1266666666666V296.29615356651084Q1122.6466666666665 297.6961535665108 1119.2466666666667 298.8561535665108Q1115.8566666666666 300.01615356651075 1110.4566666666665 300.01615356651075Q1104.9766666666665 300.01615356651075 1099.9466666666667 297.9761535665108Q1094.9266666666667 295.92615356651083 1091.0266666666666 291.78615356651073Q1087.1166666666666 287.64615356651075 1084.8866666666665 281.3261535665108T1082.6566666666665 266.4461535665108M1128.8766666666666 235.5661535665108V233.89615356651078H1137.2466666666664L1148.2166666666667 268.02615356651074H1156.0266666666666L1167.0066666666667 233.89615356651078H1175.3766666666666V235.5661535665108L1161.9766666666665 275.65615356651074H1156.2166666666667V298.99615356651077H1148.0366666666666V275.74615356651077H1142.2666666666667ZM1242.5166666666664 286.53615356651073L1242.1466666666665 233.89615356651078H1250.2366666666667V298.99615356651077H1238.9866666666667L1216.5766666666666 246.63615356651079H1215.3666666666666L1215.5466666666666 298.99615356651077H1207.5466666666666V233.89615356651078H1218.8066666666664L1241.3066666666664 286.53615356651073ZM1261.8666666666666 233.89615356651078V298.99615356651077H1287.4366666666665Q1292.7366666666667 298.99615356651077 1296.7866666666666 297.0461535665107Q1300.8266666666666 295.0861535665107 1303.2066666666665 291.0861535665108Q1305.5766666666666 287.0961535665108 1305.5766666666666 280.76615356651075Q1305.5766666666666 275.65615356651074 1303.8566666666666 272.3461535665108Q1302.1366666666665 269.0461535665107 1299.6266666666666 267.1861535665107Q1297.1066666666666 265.3261535665107 1294.5066666666667 264.6761535665107V264.2161535665108Q1296.4566666666665 263.5661535665108 1298.5566666666664 261.9861535665108Q1300.6466666666665 260.39615356651075 1302.1366666666665 257.3361535665108Q1303.6166666666666 254.26615356651078 1303.6166666666666 249.61615356651075Q1303.6166666666666 242.17615356651075 1299.3466666666666 238.03615356651076Q1295.0666666666666 233.89615356651078 1288.1866666666665 233.89615356651078ZM1286.0466666666666 291.5561535665107H1270.0466666666666V269.0461535665107H1285.8566666666666Q1290.5066666666664 269.0461535665107 1293.7666666666664 271.9361535665107Q1297.0166666666664 274.8161535665107 1297.0166666666664 280.1161535665108Q1297.0166666666664 285.78615356651073 1294.1766666666663 288.6761535665107Q1291.3466666666664 291.5561535665107 1286.0466666666664 291.5561535665107M1286.0466666666664 262.3561535665108H1270.0466666666664V241.05615356651074H1286.0466666666664Q1290.4166666666665 241.05615356651074 1292.9266666666663 243.84615356651076T1295.4366666666665 251.84615356651076Q1295.4366666666665 256.8661535665108 1292.9266666666663 259.6061535665108Q1290.4166666666665 262.3561535665108 1286.0466666666664 262.3561535665108 "></path><rect width="557.153" height="28.25" x="347.5896666666665" y="-234.35884643348925" fill="none" rx="0" ry="0" transform="translate(400.5 566.04)"></rect><path fill="#006f42" d="M752.4766666666667 353.65615356651074V336.6061535665108H762.9266666666667V338.52615356651074H754.5766666666667V343.9761535665108H762.3266666666667V345.8561535665108H754.5766666666667V353.65615356651074ZM775.4366666666667 347.4361535665107Q775.4366666666667 349.86615356651066 776.5266666666668 351.0561535665107Q777.6066666666668 352.23615356651067 779.4566666666667 352.23615356651067Q781.2866666666667 352.23615356651067 782.3066666666667 351.0661535665107Q783.3366666666668 349.88615356651076 783.3366666666668 347.53615356651073Q783.3366666666668 345.03615356651073 782.2466666666668 343.8161535665107Q781.1566666666668 342.5861535665107 779.2866666666667 342.5861535665107Q777.4066666666668 342.5861535665107 776.4266666666667 343.8061535665107Q775.4366666666667 345.01615356651075 775.4366666666667 347.4361535665107M773.3066666666667 347.41615356651073Q773.3066666666667 345.51615356651075 773.9066666666668 344.25615356651076Q774.5066666666667 342.9861535665108 775.4366666666667 342.2261535665108Q776.3566666666667 341.4661535665108 777.4266666666667 341.15615356651074Q778.4866666666667 340.8361535665107 779.4366666666667 340.8361535665107Q780.3366666666667 340.8361535665107 781.3966666666668 341.12615356651065T783.3566666666668 342.1561535665106Q784.2566666666668 342.88615356651064 784.8566666666668 344.12615356651065T785.4566666666667 347.26615356651064Q785.4566666666667 349.23615356651067 784.8466666666667 350.5361535665106T783.3066666666667 352.60615356651067Q782.3866666666668 353.36615356651066 781.3066666666667 353.6761535665107Q780.2366666666667 353.98615356651067 779.3066666666667 353.98615356651067Q778.3566666666668 353.98615356651067 777.3066666666667 353.6861535665107T775.3766666666668 352.65615356651074Q774.4866666666667 351.91615356651073 773.8966666666668 350.63615356651076Q773.3066666666667 349.3661535665108 773.3066666666667 347.41615356651073M796.7766666666668 353.66615356651073V343.1161535665108Q796.7766666666668 342.53615356651073 796.6466666666668 341.3161535665108L798.4966666666667 341.0661535665108L798.6966666666667 342.88615356651087H798.7266666666667Q799.1766666666667 342.3161535665108 799.5966666666667 341.88615356651087Q800.0266666666668 341.4661535665109 800.4866666666667 341.15615356651085Q800.9466666666667 340.8361535665108 801.3766666666667 340.8361535665108Q801.9466666666667 340.8161535665108 802.9766666666667 340.9661535665108L802.5266666666666 342.88615356651076Q801.6966666666667 342.7361535665108 801.3766666666667 342.76615356651075Q800.9466666666667 342.76615356651075 800.4766666666667 343.16615356651073Q799.9966666666667 343.5661535665107 799.6466666666666 344.01615356651075Q799.1966666666667 344.5661535665107 798.7766666666666 345.26615356651075V353.66615356651073ZM828.6366666666668 337.5861535665107L830.6366666666668 337.3361535665107V341.0861535665107H834.2566666666667V342.7161535665107H830.6366666666668V349.38615356651064Q830.6366666666668 350.2161535665107 830.6766666666667 350.76615356651064Q830.7066666666667 351.3161535665106 830.8366666666667 351.63615356651064Q830.9566666666667 351.9661535665107 831.1866666666667 352.10615356651067Q831.4066666666668 352.23615356651067 831.7566666666667 352.23615356651067Q832.7066666666667 352.2161535665107 833.9566666666667 351.5361535665106L834.5566666666666 353.0661535665106Q833.7366666666667 353.61615356651055 833.0266666666666 353.8061535665106Q832.3066666666666 353.98615356651055 831.6066666666667 353.98615356651055Q829.9566666666667 353.98615356651055 829.2966666666666 353.0561535665106Q828.6366666666667 352.11615356651055 828.6366666666667 349.9361535665106V342.71615356651057H826.3366666666667V341.0861535665106H828.6366666666667ZM845.2066666666667 353.66615356651073V334.9361535665107L847.2066666666667 334.7161535665107V342.66615356651073Q847.9566666666667 342.16615356651073 848.6966666666667 341.78615356651073Q849.4366666666667 341.41615356651073 850.2066666666667 341.12615356651077Q850.9866666666667 340.8361535665108 851.7066666666667 340.8361535665108Q852.7366666666667 340.8361535665108 853.4266666666667 341.0761535665108Q854.1066666666667 341.3161535665108 854.5366666666667 341.8661535665108Q854.9566666666667 342.41615356651073 855.1466666666668 343.3161535665108T855.3366666666667 345.5661535665108V353.66615356651084H853.3366666666667V345.78615356651085Q853.3366666666667 345.03615356651085 853.3066666666667 344.4561535665108Q853.2866666666667 343.8661535665108 853.0966666666667 343.4561535665108Q852.9066666666668 343.03615356651085 852.5266666666668 342.8161535665108Q852.1366666666668 342.5861535665108 851.4366666666667 342.5861535665108Q850.7866666666667 342.5861535665108 850.0366666666667 342.87615356651077T848.6066666666667 343.53615356651073Q847.9366666666667 343.91615356651073 847.2066666666667 344.41615356651073V353.66615356651073ZM876.1866666666667 351.6861535665107L876.5566666666667 353.36615356651066Q875.9866666666667 353.5361535665106 875.3766666666667 353.6661535665106Q874.7566666666667 353.7861535665106 874.0266666666666 353.88615356651064Q873.2866666666666 353.98615356651067 872.4866666666667 353.98615356651067Q871.2366666666667 353.98615356651067 870.1566666666668 353.63615356651064Q869.0866666666667 353.2861535665106 868.2866666666666 352.51615356651064Q867.4866666666667 351.73615356651067 867.0266666666666 350.50615356651065Q866.5566666666667 349.26615356651064 866.5566666666667 347.4661535665107Q866.5566666666667 345.8361535665107 867.0066666666667 344.60615356651067Q867.4566666666667 343.36615356651066 868.2466666666667 342.52615356651063T870.0966666666667 341.26615356651064Q871.1566666666668 340.8361535665107 872.4066666666668 340.8361535665107Q873.6366666666667 340.8361535665107 874.5366666666666 341.3161535665107Q875.4366666666667 341.78615356651073 876.0266666666666 342.60615356651067Q876.6066666666667 343.4161535665106 876.8966666666668 344.50615356651065Q877.1866666666667 345.5861535665107 877.1866666666667 346.7861535665106L876.8066666666667 347.88615356651064H868.7366666666667Q868.7366666666667 348.6661535665106 868.9366666666667 349.4361535665106Q869.1366666666667 350.21615356651057 869.6266666666667 350.8361535665106Q870.1066666666667 351.46615356651057 870.8966666666668 351.85615356651056Q871.6866666666667 352.23615356651055 872.8566666666667 352.23615356651055Q873.6066666666667 352.23615356651055 874.2366666666667 352.1561535665105Q874.8566666666667 352.0661535665105 875.3266666666667 351.95615356651047Q875.7866666666667 351.83615356651046 876.1866666666667 351.6861535665105M868.8066666666667 346.2861535665105H875.1066666666668Q875.1066666666668 346.11615356651055 875.0366666666667 345.5161535665105Q874.9566666666667 344.9161535665105 874.6866666666667 344.2661535665105Q874.4066666666668 343.61615356651055 873.8366666666668 343.10615356651056Q873.2566666666668 342.5861535665106 872.3066666666667 342.5861535665106Q871.2566666666668 342.5861535665106 870.5866666666668 343.02615356651063Q869.9066666666668 343.4661535665107 869.5066666666668 344.0661535665106T868.9566666666667 345.2861535665106Q868.8066666666667 345.9161535665106 868.8066666666667 346.2861535665106M910.6366666666668 341.23615356651067L910.2366666666667 342.9161535665106Q909.8066666666667 342.8161535665106 909.0566666666667 342.7061535665106Q908.3066666666667 342.5861535665106 907.5366666666667 342.5861535665106Q906.4066666666668 342.5861535665106 905.6966666666667 343.0361535665106T904.5866666666668 344.2061535665106Q904.1866666666667 344.9161535665106 904.0366666666667 345.77615356651063T903.8866666666668 347.4661535665107Q903.8866666666668 348.73615356651067 904.2066666666667 349.65615356651074Q904.5366666666667 350.5661535665107 905.0766666666668 351.13615356651076Q905.6066666666668 351.7161535665108 906.3066666666668 351.9761535665108T907.7866666666669 352.2361535665108Q908.3066666666668 352.2361535665108 908.7966666666669 352.17615356651083T909.6966666666667 352.02615356651086T910.4866666666668 351.8161535665108L910.8866666666668 353.4861535665108Q910.3566666666668 353.63615356651076 909.9066666666668 353.7361535665108T908.8466666666668 353.91615356651073Q908.2366666666667 353.9861535665108 907.5366666666667 353.9861535665108Q906.1566666666668 353.9861535665108 905.0866666666668 353.63615356651076Q904.0066666666668 353.28615356651073 903.2766666666668 352.51615356651075Q902.5366666666667 351.7361535665108 902.1466666666668 350.4861535665108T901.7566666666668 347.4361535665108Q901.7566666666668 345.6861535665108 902.2466666666668 344.42615356651083T903.5366666666669 342.3761535665109T905.3766666666668 341.2161535665109Q906.4066666666668 340.8361535665109 907.5366666666669 340.8361535665109Q908.1366666666668 340.8361535665109 908.6966666666668 340.90615356651097Q909.2566666666669 340.9661535665109 909.6866666666668 341.03615356651096Q910.1866666666668 341.136153566511 910.6366666666668 341.236153566511M923.1766666666668 347.43615356651105Q923.1766666666668 349.866153566511 924.2666666666669 351.05615356651106Q925.3466666666668 352.236153566511 927.1966666666668 352.236153566511Q929.0266666666669 352.236153566511 930.0466666666669 351.06615356651105Q931.0766666666668 349.8861535665111 931.0766666666668 347.5361535665111Q931.0766666666668 345.0361535665111 929.9866666666669 343.81615356651105Q928.8966666666669 342.58615356651103 927.0266666666669 342.58615356651103Q925.1466666666669 342.58615356651103 924.1666666666669 343.80615356651106Q923.1766666666668 345.0161535665111 923.1766666666668 347.43615356651105M921.0466666666669 347.41615356651107Q921.0466666666669 345.5161535665111 921.6466666666669 344.2561535665111Q922.2466666666669 342.9861535665111 923.1766666666668 342.22615356651113Q924.0966666666668 341.46615356651114 925.1666666666669 341.1561535665111Q926.2266666666669 340.83615356651103 927.1766666666668 340.83615356651103Q928.0766666666668 340.83615356651103 929.1366666666668 341.126153566511T931.0966666666668 342.15615356651097Q931.9966666666668 342.886153566511 932.5966666666668 344.126153566511T933.1966666666668 347.266153566511Q933.1966666666668 349.236153566511 932.5866666666668 350.53615356651096T931.0466666666669 352.606153566511Q930.1266666666668 353.366153566511 929.0466666666669 353.67615356651106Q927.9766666666668 353.986153566511 927.0466666666669 353.986153566511Q926.0966666666668 353.986153566511 925.0466666666669 353.68615356651105T923.1166666666668 352.6561535665111Q922.2266666666668 351.91615356651107 921.6366666666668 350.6361535665111Q921.0466666666669 349.3661535665111 921.0466666666669 347.41615356651107M944.5266666666669 353.6561535665111V343.3561535665111Q944.5266666666669 342.5061535665111 944.3766666666668 341.30615356651117L946.2466666666669 341.05615356651117L946.5266666666669 342.6261535665112Q947.1966666666668 342.1261535665112 947.8466666666668 341.7561535665112Q948.4966666666668 341.3761535665112 949.2466666666668 341.10615356651124Q949.9966666666668 340.82615356651127 950.7766666666668 340.82615356651127Q952.0266666666668 340.82615356651127 952.7466666666668 341.2661535665113Q953.4766666666668 341.7061535665114 953.8266666666668 342.75615356651133Q954.8466666666668 342.0261535665113 955.9666666666667 341.4261535665113Q957.0766666666668 340.82615356651127 958.2766666666668 340.82615356651127Q959.1966666666667 340.82615356651127 959.8466666666668 341.0661535665113T960.8966666666668 341.85615356651124T961.4766666666667 343.3061535665113Q961.6466666666668 344.20615356651126 961.6466666666668 345.5561535665113V353.6561535665113H959.6466666666668V345.7761535665113Q959.6466666666668 345.0261535665113 959.6266666666668 344.44615356651127Q959.5966666666668 343.85615356651124 959.4466666666667 343.44615356651127Q959.2966666666669 343.0261535665113 958.9666666666667 342.8061535665113Q958.6266666666668 342.57615356651127 957.9966666666667 342.57615356651127Q957.4266666666667 342.57615356651127 956.9166666666667 342.7461535665112Q956.3966666666668 342.9061535665112 955.8466666666668 343.20615356651126T954.1466666666668 344.4261535665113V353.6561535665113H952.1466666666668V345.7761535665113Q952.1466666666668 345.0261535665113 952.1266666666668 344.44615356651127Q952.0966666666668 343.85615356651124 951.9466666666667 343.44615356651127Q951.7966666666669 343.0261535665113 951.4666666666667 342.8061535665113Q951.1266666666668 342.57615356651127 950.4966666666667 342.57615356651127Q949.8466666666668 342.57615356651127 949.1466666666668 342.85615356651124Q948.4466666666667 343.1261535665112 947.8266666666667 343.5061535665112Q947.1966666666667 343.8761535665112 946.5266666666666 344.3761535665112V353.6561535665112ZM973.6066666666668 353.6561535665111V343.3561535665111Q973.6066666666668 342.5061535665111 973.4566666666668 341.30615356651117L975.3366666666668 341.05615356651117L975.6066666666668 342.6261535665112Q976.2866666666669 342.1261535665112 976.9366666666667 341.7561535665112Q977.5866666666668 341.3761535665112 978.3366666666668 341.10615356651124Q979.0866666666668 340.82615356651127 979.8566666666668 340.82615356651127Q981.1066666666668 340.82615356651127 981.8366666666668 341.2661535665113Q982.5566666666668 341.7061535665114 982.9066666666668 342.75615356651133Q983.9366666666667 342.0261535665113 985.0466666666667 341.4261535665113T987.3566666666668 340.82615356651127Q988.2866666666667 340.82615356651127 988.9366666666667 341.0661535665113T989.9866666666667 341.85615356651124T990.5566666666667 343.3061535665113Q990.7366666666667 344.20615356651126 990.7366666666667 345.5561535665113V353.6561535665113H988.7366666666667V345.7761535665113Q988.7366666666667 345.0261535665113 988.7066666666667 344.44615356651127Q988.6866666666667 343.85615356651124 988.5366666666667 343.44615356651127Q988.3866666666668 343.0261535665113 988.0466666666667 342.8061535665113Q987.7066666666667 342.57615356651127 987.0866666666668 342.57615356651127Q986.5066666666668 342.57615356651127 985.9966666666668 342.7461535665112Q985.4866666666668 342.9061535665112 984.9366666666667 343.20615356651126T983.2366666666668 344.4261535665113V353.6561535665113H981.2366666666668V345.7761535665113Q981.2366666666668 345.0261535665113 981.2066666666668 344.44615356651127Q981.1866666666668 343.85615356651124 981.0366666666669 343.44615356651127Q980.8866666666668 343.0261535665113 980.5466666666669 342.8061535665113Q980.2066666666668 342.57615356651127 979.5866666666668 342.57615356651127Q978.9366666666668 342.57615356651127 978.2366666666668 342.85615356651124Q977.5366666666669 343.1261535665112 976.9066666666668 343.5061535665112Q976.2866666666669 343.8761535665112 975.6066666666668 344.3761535665112V353.6561535665112ZM1010.3366666666668 353.8661535665111L1010.1866666666668 352.2861535665111H1010.1366666666668Q1009.9066666666668 352.466153566511 1009.4866666666669 352.7561535665111Q1009.0566666666668 353.0361535665111 1008.5066666666669 353.31615356651105Q1007.9566666666668 353.58615356651103 1007.2966666666669 353.7861535665111T1005.9566666666669 353.9861535665111Q1005.0366666666669 353.9861535665111 1004.3866666666669 353.7561535665111Q1003.7366666666669 353.5161535665111 1003.3366666666668 352.96615356651114T1002.7566666666669 351.5161535665111Q1002.5866666666668 350.6161535665111 1002.5866666666668 349.2661535665111V341.08615356651114H1004.5866666666668V348.96615356651114Q1004.5866666666668 349.71615356651114 1004.6066666666668 350.31615356651116Q1004.6366666666668 350.9161535665112 1004.7866666666669 351.33615356651114Q1004.9366666666668 351.7661535665111 1005.2766666666669 352.0061535665111Q1005.6066666666668 352.2361535665111 1006.2366666666669 352.2361535665111Q1006.8866666666668 352.2361535665111 1007.5866666666668 351.96615356651114Q1008.2866666666669 351.68615356651117 1008.8566666666668 351.33615356651114Q1009.5366666666669 350.93615356651117 1010.1866666666668 350.43615356651117V341.08615356651114H1012.1866666666668V352.0361535665112Q1012.2066666666668 352.93615356651117 1012.3066666666668 353.6661535665112ZM1024.2366666666667 353.6561535665111V343.57615356651104Q1024.2566666666667 343.05615356651106 1024.1066666666668 341.30615356651106L1025.956666666667 341.05615356651106L1026.2366666666667 342.6561535665111Q1026.9866666666667 342.1561535665111 1027.726666666667 341.7761535665111Q1028.456666666667 341.4061535665111 1029.2366666666667 341.1161535665111Q1030.0066666666667 340.82615356651115 1030.7366666666667 340.82615356651115Q1031.7566666666667 340.82615356651115 1032.4466666666667 341.06615356651116T1033.5566666666668 341.8561535665111Q1033.9866666666667 342.4061535665111 1034.1766666666667 343.30615356651117Q1034.3566666666668 344.20615356651115 1034.3566666666668 345.55615356651117V353.6561535665112H1032.3566666666668V345.7761535665112Q1032.3566666666668 345.0261535665112 1032.3366666666668 344.44615356651116Q1032.3066666666668 343.8561535665111 1032.1266666666668 343.44615356651116Q1031.936666666667 343.0261535665112 1031.5466666666669 342.80615356651117Q1031.1566666666668 342.57615356651115 1030.456666666667 342.57615356651115Q1029.8066666666668 342.57615356651115 1029.0866666666668 342.8661535665111Q1028.3566666666668 343.1561535665111 1027.6566666666668 343.5261535665111Q1026.956666666667 343.9061535665111 1026.236666666667 344.4061535665111V353.6561535665111ZM1046.2866666666669 353.66615356651107V341.06615356651105L1048.2866666666669 340.83615356651103V353.66615356651107ZM1045.956666666667 337.4861535665111Q1045.956666666667 336.91615356651107 1046.3466666666668 336.5261535665111T1047.3066666666668 336.1361535665111Q1047.9066666666668 336.1361535665111 1048.3266666666668 336.5261535665111Q1048.7366666666667 336.91615356651107 1048.7366666666667 337.4861535665111Q1048.7366666666667 338.06615356651116 1048.3266666666668 338.45615356651115Q1047.9066666666668 338.83615356651114 1047.3066666666668 338.83615356651114Q1046.7366666666667 338.83615356651114 1046.3466666666668 338.45615356651115Q1045.956666666667 338.06615356651116 1045.956666666667 337.4861535665111M1061.1966666666667 337.58615356651114L1063.1966666666667 337.33615356651114V341.08615356651114H1066.8266666666668V342.71615356651114H1063.1966666666667V349.3861535665111Q1063.1966666666667 350.21615356651114 1063.236666666667 350.7661535665111T1063.396666666667 351.6361535665111Q1063.5266666666669 351.96615356651114 1063.746666666667 352.1061535665111Q1063.976666666667 352.2361535665111 1064.3266666666668 352.2361535665111Q1065.2766666666669 352.21615356651114 1066.5266666666669 351.5361535665111L1067.126666666667 353.06615356651105Q1066.2966666666669 353.616153566511 1065.5866666666668 353.80615356651106Q1064.876666666667 353.986153566511 1064.1766666666667 353.986153566511Q1062.5266666666669 353.986153566511 1061.8666666666668 353.05615356651106Q1061.1966666666667 352.116153566511 1061.1966666666667 349.93615356651105V342.716153566511H1058.8966666666668V341.08615356651103H1061.1966666666667ZM1081.186666666667 353.33615356651114L1076.1566666666668 341.08615356651114H1078.2866666666669L1080.6366666666668 346.7661535665111Q1080.986666666667 347.58615356651114 1081.2766666666669 348.41615356651107Q1081.5566666666668 349.2361535665111 1081.7866666666669 349.8861535665111Q1082.0566666666668 350.66615356651107 1082.256666666667 351.3861535665111H1082.2866666666669Q1082.506666666667 350.66615356651107 1082.7866666666669 349.8861535665111Q1083.006666666667 349.2361535665111 1083.3066666666668 348.41615356651107Q1083.6066666666668 347.58615356651103 1083.936666666667 346.7661535665111L1086.1066666666668 341.08615356651114H1088.206666666667L1082.256666666667 356.08615356651114Q1081.9066666666668 357.0161535665111 1081.3466666666668 357.68615356651117Q1080.7866666666669 358.3661535665111 1080.256666666667 358.81615356651116Q1079.6366666666668 359.33615356651114 1078.956666666667 359.71615356651114L1077.986666666667 357.9861535665111Q1078.506666666667 357.7361535665111 1078.956666666667 357.3661535665111Q1079.3566666666668 357.0361535665111 1079.756666666667 356.55615356651117Q1080.1566666666668 356.06615356651116 1080.4066666666668 355.3861535665112ZM1097.726666666667 356.55615356651117L1098.5766666666668 350.4061535665112H1100.696666666667L1099.2966666666669 356.85615356651124ZM1127.486666666667 353.6661535665112V342.71615356651114H1125.1566666666668V341.08615356651114H1127.486666666667Q1127.486666666667 339.33615356651114 1127.726666666667 338.1261535665111Q1127.956666666667 336.91615356651107 1128.486666666667 336.1561535665111Q1129.006666666667 335.3861535665111 1129.8366666666668 335.05615356651106Q1130.6566666666668 334.716153566511 1131.8366666666668 334.716153566511Q1132.7866666666669 334.716153566511 1133.6066666666668 335.02615356651097Q1134.436666666667 335.3361535665109 1134.936666666667 335.78615356651096L1134.0566666666668 337.28615356651096Q1133.5566666666668 336.91615356651096 1133.0266666666669 336.68615356651094Q1132.486666666667 336.4661535665109 1131.8566666666668 336.4661535665109Q1131.0366666666669 336.4661535665109 1130.5566666666668 336.8261535665109Q1130.0866666666668 337.18615356651094 1129.8466666666668 337.81615356651093Q1129.6066666666668 338.43615356651094 1129.5466666666669 339.27615356651097T1129.486666666667 341.0861535665109H1132.6066666666668V342.7161535665109H1129.486666666667V353.66615356651096ZM1144.726666666667 347.43615356651117Q1144.726666666667 349.8661535665111 1145.8166666666668 351.05615356651117Q1146.896666666667 352.2361535665111 1148.746666666667 352.2361535665111Q1150.5766666666668 352.2361535665111 1151.5966666666668 351.06615356651116Q1152.6266666666668 349.8861535665112 1152.6266666666668 347.5361535665112Q1152.6266666666668 345.0361535665112 1151.5366666666669 343.81615356651116Q1150.4466666666667 342.58615356651114 1148.5766666666668 342.58615356651114Q1146.6966666666667 342.58615356651114 1145.7166666666667 343.80615356651117Q1144.7266666666667 345.0161535665112 1144.7266666666667 347.43615356651117M1142.5966666666668 347.4161535665112Q1142.5966666666668 345.5161535665112 1143.1966666666667 344.2561535665112Q1143.7966666666666 342.98615356651123 1144.7266666666667 342.22615356651124Q1145.6466666666665 341.46615356651125 1146.7166666666667 341.1561535665112Q1147.7766666666666 340.83615356651114 1148.7266666666667 340.83615356651114Q1149.6266666666666 340.83615356651114 1150.6866666666667 341.1261535665111T1152.6466666666668 342.1561535665111Q1153.5466666666666 342.8861535665111 1154.1466666666668 344.1261535665111T1154.746666666667 347.2661535665111Q1154.746666666667 349.2361535665111 1154.1366666666668 350.5361535665111T1152.5966666666668 352.6061535665111Q1151.6766666666667 353.3661535665111 1150.5966666666668 353.6761535665112Q1149.5266666666666 353.9861535665111 1148.5966666666668 353.9861535665111Q1147.6466666666668 353.9861535665111 1146.5966666666668 353.68615356651117T1144.666666666667 352.6561535665112Q1143.7766666666669 351.9161535665112 1143.186666666667 350.6361535665112Q1142.5966666666668 349.36615356651123 1142.5966666666668 347.4161535665112M1166.0866666666668 353.6661535665112V343.11615356651123Q1166.0866666666668 342.5361535665112 1165.956666666667 341.3161535665113L1167.8066666666668 341.0661535665113L1168.006666666667 342.8861535665113H1168.0366666666669Q1168.486666666667 342.3161535665113 1168.9066666666668 341.8861535665113Q1169.3366666666668 341.46615356651137 1169.7966666666669 341.1561535665113Q1170.256666666667 340.83615356651126 1170.686666666667 340.83615356651126Q1171.256666666667 340.8161535665113 1172.2866666666669 340.96615356651125L1171.8366666666668 342.8861535665112Q1171.0066666666667 342.73615356651123 1170.686666666667 342.7661535665112Q1170.256666666667 342.7661535665112 1169.7866666666669 343.1661535665112Q1169.3066666666668 343.56615356651116 1168.956666666667 344.0161535665112Q1168.5066666666667 344.56615356651116 1168.0866666666668 345.2661535665112V353.6661535665112ZM1197.0066666666667 353.6661535665112V334.93615356651117L1199.0066666666667 334.71615356651114V342.6661535665112Q1199.7566666666667 342.1661535665112 1200.496666666667 341.7861535665112Q1201.2366666666667 341.4161535665112 1202.0066666666667 341.1261535665112Q1202.7866666666669 340.83615356651126 1203.5066666666667 340.83615356651126Q1204.5366666666669 340.83615356651126 1205.226666666667 341.07615356651127Q1205.9066666666668 341.3161535665113 1206.3366666666668 341.86615356651123Q1206.7566666666667 342.4161535665112 1206.9466666666667 343.3161535665113T1207.1366666666668 345.5661535665113V353.6661535665113H1205.1366666666668V345.7861535665113Q1205.1366666666668 345.0361535665113 1205.106666666667 344.45615356651126Q1205.086666666667 343.86615356651123 1204.896666666667 343.45615356651126Q1204.706666666667 343.0361535665113 1204.3266666666668 342.8161535665113Q1203.936666666667 342.58615356651126 1203.2366666666667 342.58615356651126Q1202.5866666666668 342.58615356651126 1201.8366666666668 342.8761535665112T1200.4066666666668 343.5361535665112Q1199.736666666667 343.9161535665112 1199.006666666667 344.4161535665112V353.6661535665112ZM1227.976666666667 351.68615356651117L1228.3466666666668 353.3661535665111Q1227.7766666666666 353.5361535665111 1227.166666666667 353.66615356651107Q1226.5466666666669 353.7861535665111 1225.8166666666668 353.8861535665111Q1225.0766666666668 353.9861535665111 1224.2766666666669 353.9861535665111Q1223.0266666666669 353.9861535665111 1221.9466666666667 353.6361535665111Q1220.8766666666668 353.2861535665111 1220.0766666666668 352.5161535665111Q1219.2766666666669 351.7361535665111 1218.8166666666668 350.5061535665111Q1218.3466666666668 349.2661535665111 1218.3466666666668 347.46615356651114Q1218.3466666666668 345.83615356651114 1218.7966666666669 344.6061535665111Q1219.246666666667 343.3661535665111 1220.0366666666669 342.5261535665111T1221.8866666666668 341.2661535665111Q1222.9466666666667 340.83615356651114 1224.1966666666667 340.83615356651114Q1225.4266666666667 340.83615356651114 1226.3266666666668 341.31615356651116Q1227.226666666667 341.7861535665112 1227.8166666666668 342.6061535665111Q1228.396666666667 343.41615356651107 1228.686666666667 344.5061535665111Q1228.976666666667 345.58615356651114 1228.976666666667 346.7861535665111L1228.5966666666668 347.8861535665111H1220.5266666666666Q1220.5266666666666 348.66615356651107 1220.726666666667 349.43615356651105Q1220.9266666666667 350.216153566511 1221.416666666667 350.83615356651103Q1221.896666666667 351.466153566511 1222.686666666667 351.856153566511Q1223.476666666667 352.236153566511 1224.646666666667 352.236153566511Q1225.396666666667 352.236153566511 1226.0266666666669 352.15615356651097Q1226.646666666667 352.06615356651093 1227.1166666666668 351.9561535665109Q1227.5766666666668 351.8361535665109 1227.976666666667 351.68615356651094M1220.5966666666668 346.28615356651096H1226.896666666667Q1226.896666666667 346.116153566511 1226.8266666666668 345.516153566511Q1226.746666666667 344.91615356651096 1226.476666666667 344.266153566511Q1226.1966666666667 343.616153566511 1225.6266666666668 343.106153566511Q1225.0466666666666 342.58615356651103 1224.0966666666668 342.58615356651103Q1223.0466666666669 342.58615356651103 1222.3766666666668 343.0261535665111Q1221.6966666666667 343.46615356651114 1221.2966666666666 344.06615356651105T1220.746666666667 345.2861535665111Q1220.5966666666668 345.91615356651107 1220.5966666666668 346.2861535665111M1247.1066666666668 350.7361535665111V347.8861535665111Q1246.6066666666668 347.91615356651107 1246.1566666666668 347.93615356651105Q1245.7066666666667 347.966153566511 1245.2766666666666 348.0061535665111Q1244.8366666666666 348.0361535665111 1244.4866666666667 348.08615356651114Q1242.686666666667 348.31615356651116 1241.936666666667 348.8761535665111T1241.186666666667 350.4861535665111Q1241.186666666667 351.3661535665111 1241.726666666667 351.80615356651117Q1242.2566666666667 352.2361535665111 1243.1366666666668 352.2361535665111Q1244.3366666666668 352.2361535665111 1245.2766666666666 351.82615356651115Q1246.2066666666667 351.4161535665112 1247.1066666666668 350.7361535665111M1247.3366666666668 353.8661535665111L1247.0866666666668 352.4861535665111Q1245.9066666666668 353.16615356651107 1244.8966666666668 353.57615356651115T1242.7066666666667 353.9861535665111Q1241.0366666666669 353.9861535665111 1240.0466666666666 353.1761535665112T1239.0566666666668 350.4861535665111Q1239.0566666666668 349.5161535665111 1239.5566666666668 348.7861535665111Q1240.0566666666668 348.06615356651105 1240.8766666666668 347.57615356651104Q1241.6866666666667 347.08615356651103 1242.706666666667 346.81615356651105Q1243.7366666666667 346.5361535665111 1244.8066666666668 346.466153566511Q1245.256666666667 346.41615356651107 1245.9866666666667 346.376153566511Q1246.706666666667 346.33615356651103 1247.1066666666668 346.31615356651105Q1247.1066666666668 345.43615356651105 1247.0566666666668 344.7561535665111Q1247.006666666667 344.06615356651105 1246.756666666667 343.57615356651115T1246.0266666666669 342.83615356651114Q1245.5366666666669 342.58615356651114 1244.6366666666668 342.58615356651114Q1243.9066666666668 342.58615356651114 1243.236666666667 342.6761535665112Q1242.5566666666668 342.7661535665112 1242.0366666666669 342.86615356651123Q1241.4066666666668 342.98615356651123 1240.8866666666668 343.1361535665112L1240.486666666667 341.4161535665112Q1241.106666666667 341.2661535665112 1241.836666666667 341.1361535665112Q1242.456666666667 341.0161535665112 1243.2866666666669 340.9261535665112Q1244.106666666667 340.83615356651114 1245.0566666666668 340.83615356651114Q1246.336666666667 340.83615356651114 1247.126666666667 341.21615356651114Q1247.906666666667 341.58615356651114 1248.346666666667 342.22615356651113T1248.9466666666672 343.6761535665112T1249.106666666667 345.3861535665112V351.3861535665112Q1249.106666666667 351.73615356651123 1249.126666666667 352.1261535665112Q1249.136666666667 352.5161535665112 1249.176666666667 352.8861535665112Q1249.206666666667 353.2661535665112 1249.2566666666671 353.6661535665112ZM1261.0366666666669 353.66615356651107V334.93615356651105L1263.0366666666669 334.716153566511V353.66615356651107ZM1275.9466666666667 337.58615356651103L1277.9466666666667 337.33615356651103V341.08615356651103H1281.5766666666668V342.716153566511H1277.9466666666667V349.386153566511Q1277.9466666666667 350.216153566511 1277.9866666666667 350.766153566511T1278.1466666666668 351.636153566511Q1278.2766666666666 351.966153566511 1278.496666666667 352.106153566511Q1278.726666666667 352.236153566511 1279.0766666666668 352.236153566511Q1280.0266666666669 352.216153566511 1281.2766666666669 351.53615356651096L1281.876666666667 353.06615356651093Q1281.0466666666669 353.6161535665109 1280.336666666667 353.80615356651094Q1279.626666666667 353.9861535665109 1278.926666666667 353.9861535665109Q1277.276666666667 353.9861535665109 1276.616666666667 353.05615356651094Q1275.9466666666672 352.1161535665109 1275.9466666666672 349.93615356651094V342.7161535665109H1273.646666666667V341.0861535665109H1275.9466666666672ZM1292.5366666666669 353.66615356651107V334.93615356651105L1294.5366666666669 334.716153566511V342.66615356651107Q1295.2866666666669 342.16615356651107 1296.0266666666669 341.7861535665111Q1296.756666666667 341.41615356651107 1297.5366666666669 341.1261535665111Q1298.3066666666668 340.83615356651114 1299.0366666666669 340.83615356651114Q1300.0566666666668 340.83615356651114 1300.746666666667 341.07615356651115T1301.856666666667 341.8661535665111Q1302.2866666666669 342.41615356651107 1302.476666666667 343.31615356651116Q1302.6566666666668 344.21615356651114 1302.6566666666668 345.56615356651116V353.6661535665112H1300.6566666666668V345.7861535665112Q1300.6566666666668 345.0361535665112 1300.6366666666668 344.45615356651115Q1300.606666666667 343.8661535665111 1300.4266666666667 343.45615356651115Q1300.2366666666667 343.0361535665112 1299.8466666666668 342.81615356651116Q1299.456666666667 342.58615356651114 1298.7566666666667 342.58615356651114Q1298.1066666666668 342.58615356651114 1297.3566666666668 342.8761535665111T1295.936666666667 343.5361535665111Q1295.256666666667 343.91615356651107 1294.5366666666669 344.41615356651107V353.66615356651107ZM1066.1016666666667 37.03615356651076C1066.1016666666667 25.066153566510764 1060.9566666666667 5.956153566510778 1029.5826666666667 1.5251535665107667A5.25 5.25 0 0 0 1025.6766666666667 0.07615356651075444L1015.0506666666668 0.49615356651074194C1013.1606666666668 0.5591535665107301 1011.6276666666668 1.630153566510728 1010.7036666666668 3.121153566510742L1004.5716666666667 1.0211535665107476A2.73 2.73 0 1 0 1002.8076666666668 6.166153566510758L1004.8026666666667 6.85915356651077L1003.8996666666667 7.279153566510757A2.734 2.734 0 0 0 1006.2096666666667 12.235153566510746L1011.3336666666668 9.84115356651074A5.46 5.46 0 0 0 1015.2186666666668 11.500153566510733C1041.7416666666668 11.500153566510733 1055.1816666666668 20.110153566510718 1055.1816666666668 37.03615356651076C1055.1816666666668 45.058153566510754 1044.429666666667 52.63915356651077 1027.9236666666668 57.15415356651076L1028.322666666667 47.80915356651073A15.687 15.687 0 0 0 1019.8596666666667 18.871153566510742A15.687 15.687 0 0 0 1011.3966666666668 47.80915356651073L1011.9216666666667 60.556153566510744C996.1506666666667 63.70615356651072 987.7926666666667 73.78615356651076 987.7926666666667 82.66915356651074C987.7926666666667 97.57915356651077 1004.0256666666667 102.07315356651074 1013.7486666666667 104.71915356651076L1014.3786666666667 119.94415356651078L1014.1686666666667 119.98615356651075C1006.2726666666667 121.51915356651077 997.8096666666668 125.90815356651078 997.8096666666668 133.59415356651076C997.8096666666668 142.93915356651078 1007.1546666666668 146.61415356651074 1011.6696666666668 148.39915356651076A85 85 0 0 1 1015.6386666666667 150.07915356651077L1015.8486666666668 155.53915356651075A16.8 16.8 0 0 0 1010.6826666666668 161.20915356651076A5.46 5.46 0 0 0 1015.5126666666667 169.18915356651078Q1015.9746666666667 169.18915356651078 1016.4156666666668 169.0631535665108L1017.1296666666667 186.45115356651078Q1017.1506666666668 186.68215356651078 1017.2346666666667 186.89215356651076L1017.3396666666667 187.39615356651078L1017.6336666666668 187.85815356651077L1017.9066666666668 188.23615356651075Q1018.1166666666668 188.42515356651077 1018.3686666666667 188.57215356651076Q1018.5576666666668 188.74015356651077 1018.7676666666669 188.82415356651077Q1019.0196666666668 188.9291535665108 1019.3136666666668 188.97115356651076L1019.7336666666667 189.07615356651078H1019.9646666666667L1020.3846666666668 188.97115356651076Q1020.6996666666669 188.9291535665108 1020.9516666666668 188.82415356651077L1021.3716666666669 188.57215356651076L1021.7916666666669 188.23615356651075Q1021.9806666666668 188.06815356651074 1022.0856666666668 187.85815356651077Q1022.2536666666668 187.64815356651079 1022.3796666666668 187.37515356651076L1022.4846666666668 186.89215356651076Q1022.5686666666668 186.68215356651078 1022.5896666666669 186.47215356651074L1023.5346666666669 163.49815356651075L1024.206666666667 163.05715356651078C1027.146666666667 161.1671535665108 1031.619666666667 158.29015356651078 1031.619666666667 152.62015356651077C1031.619666666667 147.97915356651075 1028.322666666667 144.72415356651075 1024.416666666667 142.33015356651075L1024.983666666667 128.68015356651077C1032.543666666667 126.43315356651075 1040.880666666667 122.17015356651078 1040.880666666667 113.43415356651079C1040.880666666667 105.45415356651077 1033.992666666667 100.58215356651081 1026.264666666667 97.3901535665108L1027.461666666667 68.59915356651081C1051.548666666667 62.88715356651082 1066.101666666667 51.27415356651082 1066.101666666667 37.03615356651082M1019.838666666667 29.81215356651083A4.788 4.788 0 1 1 1019.838666666667 39.38815356651085A4.788 4.788 0 0 1 1019.838666666667 29.812153566510858M1019.838666666667 120.11215356651084L1019.271666666667 106.46215356651086L1020.3846666666669 106.86115356651086ZM998.712666666667 82.66915356651086C998.712666666667 79.30915356651084 1003.164666666667 73.99615356651086 1012.3626666666669 71.64415356651088L1013.2656666666669 93.21115356651089C1003.815666666667 90.39715356651087 998.712666666667 87.64615356651089 998.712666666667 82.66915356651091M1008.6246666666669 134.07715356651093C1009.0236666666669 133.4051535665109 1011.396666666667 131.99815356651092 1014.819666666667 131.0951535665109L1015.1136666666669 138.0041535665109C1012.0266666666669 136.7441535665109 1008.7296666666668 135.2111535665109 1008.6246666666669 134.07715356651087M1029.918666666667 113.4341535665109C1029.918666666667 113.95915356651088 1029.3936666666668 115.30315356651093 1025.445666666667 116.9411535665109L1025.760666666667 109.27615356651089C1029.7506666666668 111.5231535665109 1029.918666666667 113.16115356651088 1029.918666666667 113.4341535665109M1018.7886666666669 94.80715356651089L1016.9406666666669 50.0351535665109A14.7 14.7 0 0 0 1022.7366666666669 50.0351535665109L1020.8466666666669 95.43715356651089Z "></path></g><rect width="560" height="360" x="720" y="0" id="space-saver" fill="transparent" stroke="transparent"></rect></g></svg>